<?xml version="1.0" standalone="no"?>
<!DOCTYPE svg PUBLIC "-//W3C//DTD SVG 20010904//EN"
 "http://www.w3.org/TR/2001/REC-SVG-20010904/DTD/svg10.dtd">
<svg version="1.0" xmlns="http://www.w3.org/2000/svg"
 width="200.000000pt" height="200.000000pt" viewBox="0 0 200.000000 200.000000"
 preserveAspectRatio="xMidYMid meet">

<g transform="translate(0.000000,200.000000) scale(0.100000,-0.100000)"
fill="#000000" stroke="none">
<path d="M293 1888 c-4 -7 -9 -249 -10 -538 -2 -289 -4 -534 -4 -546 -1 -11
70 -164 158 -340 l160 -319 49 -2 c27 -2 150 -2 274 0 124 1 363 2 533 2 169
0 307 3 307 7 0 4 -18 42 -40 85 -21 43 -59 119 -84 169 -24 50 -85 157 -135
237 -50 81 -91 151 -91 157 0 5 -4 10 -8 10 -4 0 -7 57 -6 128 1 99 -13 634
-19 737 -1 11 2 43 6 70 4 28 3 55 -1 61 -4 7 -52 14 -112 18 -58 3 -181 11
-275 16 -93 6 -231 15 -306 20 -74 6 -180 10 -235 10 -73 0 -106 4 -120 15
-24 18 -31 18 -41 3z m552 -78 c160 -11 335 -20 391 -20 l101 0 7 -172 c3 -95
9 -299 11 -453 3 -154 8 -289 10 -300 10 -49 4 -50 -282 -50 -332 0 -676 5
-723 11 l-35 5 2 392 c1 216 2 443 2 505 l1 114 113 -6 c61 -4 243 -16 402
-26z m257 -1034 l257 4 46 -70 c25 -39 45 -73 45 -77 0 -3 24 -42 54 -87 52
-79 196 -341 196 -358 0 -5 -78 -6 -172 -2 -97 4 -300 1 -462 -6 -321 -13
-417 -9 -445 21 -10 11 -64 113 -120 227 -56 114 -106 214 -111 222 -21 34
-48 86 -54 107 -7 22 -6 22 126 25 73 2 189 0 258 -3 69 -4 241 -5 382 -3z"/>
<path d="M525 1764 c-120 -8 -122 -11 -130 -186 -3 -68 -8 -168 -10 -223 -10
-214 -7 -381 9 -419 26 -63 51 -68 376 -75 377 -8 428 -6 473 12 62 27 65 45
55 327 -5 135 -8 300 -8 368 0 117 -1 123 -24 147 -14 14 -37 25 -53 26 -15 0
-37 3 -48 5 -11 3 -117 7 -235 8 -118 2 -244 6 -280 8 -36 3 -92 4 -125 2z
m150 -35 c22 -5 105 -10 185 -9 185 1 355 -9 375 -24 16 -12 20 -70 31 -491 8
-268 8 -265 -15 -288 -30 -30 -88 -35 -304 -26 -111 4 -261 10 -333 13 -157 7
-179 13 -191 58 -11 44 -4 727 8 749 14 27 167 38 244 18z"/>
<path d="M551 1626 c-40 -41 -72 -79 -70 -85 5 -13 12 -8 88 71 35 36 62 71
60 77 -2 6 -37 -22 -78 -63z"/>
<path d="M490 1659 c-22 -29 -22 -48 -1 -35 5 4 20 20 31 36 17 24 18 30 6 30
-8 0 -24 -14 -36 -31z"/>
<path d="M767 1642 c-10 -10 -17 -24 -17 -31 0 -8 -12 -11 -37 -9 -37 3 -38 2
-35 -30 4 -55 27 -87 102 -138 43 -29 73 -57 77 -72 9 -36 -5 -114 -33 -189
-33 -86 -30 -166 6 -195 12 -10 26 -18 31 -18 14 0 10 26 -6 40 -10 8 -15 30
-15 60 0 65 7 80 39 80 33 0 85 31 106 64 21 32 33 136 16 136 -7 0 -20 -9
-29 -19 -10 -10 -31 -21 -49 -25 -32 -5 -32 -4 -31 29 1 19 4 35 8 35 17 0 92
89 119 142 39 76 39 82 -3 75 -32 -5 -34 -4 -33 21 2 25 -1 27 -35 25 -29 -2
-38 2 -43 17 -8 25 -31 26 -44 3 -9 -17 -11 -17 -39 0 -37 21 -35 21 -55 -1z
m50 -37 c14 -10 19 -22 16 -35 -5 -19 -6 -19 -34 -3 -28 17 -36 33 -22 46 9
10 16 9 40 -8z m63 -72 c0 -41 -3 -54 -10 -43 -11 17 -13 61 -4 84 11 28 14
18 14 -41z m70 48 c0 -17 -12 -41 -21 -41 -5 0 -9 11 -9 25 0 16 6 25 15 25 8
0 15 -4 15 -9z m-128 -87 c26 -38 36 -74 20 -74 -4 0 -35 26 -70 58 -42 39
-62 65 -62 81 l0 23 43 -25 c23 -13 54 -42 69 -63z m161 6 c-10 -17 -32 -45
-50 -62 l-33 -32 10 35 c9 33 60 89 81 89 5 0 2 -14 -8 -30z m-13 -269 c-12
-29 -46 -51 -81 -51 -16 0 -18 5 -13 28 8 35 26 53 66 67 39 12 47 0 28 -44z"/>
<path d="M1156 743 c-16 -4 -18 -12 -13 -55 4 -28 8 -53 11 -55 10 -11 106 9
106 22 0 26 -31 85 -44 85 -8 0 -20 2 -28 4 -7 2 -21 1 -32 -1z m69 -54 c8
-25 7 -26 -25 -31 -21 -2 -26 2 -28 25 -3 23 0 27 22 27 16 0 27 -7 31 -21z"/>
<path d="M1274 725 c18 -72 24 -78 67 -72 58 8 64 18 37 60 -21 32 -28 36 -67
37 -41 0 -43 -1 -37 -25z m76 -20 c13 -16 6 -35 -15 -35 -12 0 -25 21 -25 41
0 14 26 11 40 -6z"/>
<path d="M606 727 c-16 -12 -15 -16 10 -71 l27 -59 60 7 c33 3 63 9 66 12 3 3
-2 17 -12 32 -9 15 -24 42 -32 60 -14 29 -20 32 -58 32 -24 0 -51 -6 -61 -13z
m105 -54 c7 -16 15 -31 17 -35 2 -5 -14 -8 -35 -8 -35 0 -39 3 -49 35 -11 35
-11 35 21 35 25 0 35 -6 46 -27z"/>
<path d="M777 728 c-15 -12 -15 -16 3 -53 11 -22 19 -46 20 -52 0 -7 12 -13
28 -13 30 1 111 15 117 21 2 3 -6 25 -18 51 -18 39 -26 47 -57 52 -53 9 -75 7
-93 -6z m77 -30 c24 -1 41 -9 47 -20 15 -27 3 -38 -41 -38 -34 0 -39 4 -49 31
-13 38 -13 42 -3 35 5 -3 26 -6 46 -8z"/>
<path d="M974 717 c3 -13 13 -40 21 -61 12 -29 20 -36 33 -30 9 4 34 10 55 13
21 3 38 8 39 11 0 3 -5 24 -12 48 l-13 42 -65 0 c-62 0 -64 -1 -58 -23z m114
-33 c4 -30 -54 -40 -69 -12 -14 27 -2 40 34 36 24 -2 33 -9 35 -24z"/>
<path d="M407 713 c-3 -4 7 -32 23 -62 l27 -55 64 3 c35 1 68 6 72 10 4 5 -5
30 -20 56 l-28 47 -67 5 c-36 2 -68 1 -71 -4z m131 -51 c10 -13 9 -18 -3 -25
-18 -10 -75 0 -75 13 0 5 -3 16 -7 26 -5 15 -2 16 33 10 21 -4 45 -15 52 -24z"/>
<path d="M1317 609 c-3 -12 3 -39 13 -60 19 -37 20 -38 47 -24 16 8 38 15 51
15 26 0 27 6 7 54 -15 34 -17 36 -64 36 -41 0 -50 -3 -54 -21z m83 -13 c0 -2
3 -11 6 -19 8 -23 -44 -29 -56 -6 -15 26 -13 29 20 29 17 0 30 -2 30 -4z"/>
<path d="M1200 612 c-13 -5 -13 -31 1 -72 11 -31 13 -32 56 -27 24 2 47 8 50
11 4 4 -3 26 -15 51 -19 39 -25 44 -51 42 -17 -1 -35 -3 -41 -5z m57 -48 c2
-6 -3 -14 -11 -17 -8 -3 -16 2 -19 14 -4 15 -1 19 10 17 9 -2 18 -8 20 -14z"/>
<path d="M893 603 c-60 -6 -68 -20 -42 -79 12 -27 22 -50 23 -51 0 -1 23 3 50
8 73 13 77 20 48 79 -13 27 -27 49 -31 48 -3 -1 -25 -3 -48 -5z m45 -57 c10
-22 8 -25 -16 -31 -19 -5 -30 -2 -39 11 -21 29 -16 44 15 44 21 0 32 -7 40
-24z"/>
<path d="M1038 596 c-15 -11 -16 -18 -6 -47 6 -19 13 -40 14 -47 5 -19 108 -2
132 21 11 12 11 16 -1 28 -7 8 -19 24 -26 37 -9 17 -20 22 -54 22 -23 0 -50
-7 -59 -14z m91 -35 c9 -15 7 -20 -12 -25 -36 -9 -44 -7 -50 14 -8 32 46 42
62 11z"/>
<path d="M667 572 c-8 -10 -6 -23 8 -49 11 -19 25 -38 32 -40 13 -5 113 15
113 23 0 2 -10 22 -21 44 -21 40 -22 41 -71 38 -27 -2 -55 -9 -61 -16z m93
-16 c0 -2 3 -11 6 -20 5 -12 -1 -16 -24 -16 -32 0 -48 13 -37 30 6 9 55 15 55
6z"/>
<path d="M496 551 c-7 -11 3 -41 14 -41 4 0 13 -14 20 -30 12 -30 14 -30 69
-26 31 2 56 6 55 7 0 2 -6 25 -13 52 l-14 47 -63 0 c-34 0 -65 -4 -68 -9z
m106 -36 c15 -20 8 -35 -15 -35 -16 0 -28 9 -35 25 -11 23 -10 25 16 23 15 -1
30 -7 34 -13z"/>
<path d="M1380 501 c-29 -8 -35 -27 -21 -65 10 -26 13 -26 63 -20 69 9 76 16
52 59 -19 36 -38 42 -94 26z m60 -41 c0 -5 -4 -10 -9 -10 -5 0 -16 -3 -25 -6
-11 -4 -16 -1 -16 10 0 10 9 16 25 16 14 0 25 -4 25 -10z"/>
<path d="M1224 478 c-3 -5 0 -24 6 -43 12 -38 34 -44 85 -25 20 8 24 13 16 27
-5 10 -12 26 -15 36 -4 14 -15 17 -46 15 -23 -1 -44 -6 -46 -10z m66 -39 c0
-5 -7 -9 -15 -9 -8 0 -15 7 -15 15 0 9 6 12 15 9 8 -4 15 -10 15 -15z"/>
<path d="M1066 467 c-15 -11 -16 -17 -7 -35 6 -11 11 -30 11 -41 0 -23 15 -35
31 -25 6 3 29 8 51 10 22 1 44 6 49 11 5 5 -1 27 -12 51 -20 39 -24 42 -63 42
-23 0 -50 -6 -60 -13z m88 -42 c4 -11 -2 -15 -23 -15 -16 0 -31 7 -35 15 -4
11 2 15 23 15 16 0 31 -7 35 -15z"/>
<path d="M885 450 c-9 -15 5 -79 21 -95 12 -12 21 -12 60 0 25 7 48 16 51 19
3 2 -3 23 -13 45 -17 40 -19 41 -65 41 -26 0 -51 -4 -54 -10z m85 -31 c14 -24
11 -28 -23 -34 -20 -4 -26 0 -29 20 -5 22 1 29 34 34 4 0 12 -8 18 -20z"/>
<path d="M765 443 c-55 -7 -56 -9 -30 -61 l25 -49 42 10 c24 5 49 11 56 13 10
3 6 15 -12 46 -27 45 -32 48 -81 41z m33 -66 c-20 -7 -37 4 -38 25 0 14 36 14
48 -1 10 -13 9 -17 -10 -24z"/>
<path d="M583 412 c-29 -4 -29 -20 0 -63 21 -31 27 -34 68 -31 24 2 47 7 52
11 4 4 -1 26 -10 49 -19 45 -26 47 -110 34z m75 -34 c7 -7 12 -16 12 -20 0
-14 -47 -9 -59 6 -12 14 -8 17 30 25 3 0 10 -4 17 -11z"/>
<path d="M1140 345 c-200 -16 -310 -34 -317 -52 -8 -20 15 -93 31 -99 8 -3 74
2 147 11 74 9 187 21 252 27 127 12 133 17 94 65 -13 15 -26 36 -30 46 -3 9
-10 16 -14 16 -4 -1 -78 -7 -163 -14z m157 -44 c12 -18 9 -20 -35 -26 -26 -3
-92 -12 -147 -20 -145 -20 -265 -27 -265 -16 0 5 -3 16 -6 24 -4 11 11 17 71
26 42 6 106 11 143 12 37 0 85 4 107 8 74 16 119 13 132 -8z"/>
</g>
</svg>
